<svg id="Capa_1" enable-background="new 0 0 512 512" height="512" viewBox="0 0 512 512" width="512" xmlns="http://www.w3.org/2000/svg"><g><path d="m406 225v-75c0-82.71-67.29-150-150-150s-150 67.29-150 150v75h-45v287h390v-287zm-270-75c0-66.168 53.831-120 120-120 66.168 0 120 53.832 120 120v75h-45v-75c0-41.355-33.645-75-75-75s-75 33.645-75 75v75h-45zm165 75h-90v-75c0-24.813 20.187-45 45-45 24.814 0 45 20.187 45 45zm-45 165c-16.542 0-30-13.458-30-30s13.458-30 30-30 30 13.458 30 30-13.458 30-30 30zm165 92h-150v-63.898c25.85-6.678 45-30.195 45-58.102 0-33.084-26.916-60-60-60s-60 26.916-60 60c0 27.906 19.151 51.424 45 58.102v63.898h-150v-227h330z"/></g></svg>